<svg width="120" height="120" fill="none" xmlns="http://www.w3.org/2000/svg"><g clip-path="url(#prefix__a)"><g filter="url(#prefix__b)"><path fill="url(#prefix__c)" d="M18 80a5 5 0 0 1 5-5h15a5 5 0 0 1 5 5v40H18z" shape-rendering="crispEdges"/></g><g filter="url(#prefix__d)"><path fill="url(#prefix__e)" d="M47 65a5 5 0 0 1 5-5h15a5 5 0 0 1 5 5v55H47z" shape-rendering="crispEdges"/></g><g filter="url(#prefix__f)"><path fill="url(#prefix__g)" d="M76 45a5 5 0 0 1 5-5h15a5 5 0 0 1 5 5v75H76z" shape-rendering="crispEdges"/></g><g filter="url(#prefix__h)"><path stroke="#01E0ED" stroke-linecap="round" stroke-width="2" d="M13 72.586 42.586 43"/></g><g filter="url(#prefix__i)"><path stroke="#01E0ED" stroke-linecap="round" stroke-width="2" d="m43 43 16.213 7.548"/></g><g filter="url(#prefix__j)"><path stroke="#01E0ED" stroke-linecap="round" stroke-width="2" d="M59.112 50.59 91.59 22.888"/></g><path fill="#01E0ED" d="M93.958 19.199a1 1 0 0 1 1.215 1.235l-1.386 5.008a1 1 0 0 1-1.676.434l-3.644-3.704a1 1 0 0 1 .462-1.67z"/></g><defs><filter id="prefix__b" width="33" height="53" x="14" y="75" color-interpolation-filters="sRGB" filterUnits="userSpaceOnUse"><feFlood flood-opacity="0" result="BackgroundImageFix"/><feColorMatrix in="SourceAlpha" result="hardAlpha" values="0 0 0 0 0 0 0 0 0 0 0 0 0 0 0 0 0 0 127 0"/><feOffset dy="4"/><feGaussianBlur stdDeviation="2"/><feComposite in2="hardAlpha" operator="out"/><feColorMatrix values="0 0 0 0 0.00392157 0 0 0 0 0.878431 0 0 0 0 0.929412 0 0 0 0.25 0"/><feBlend in2="BackgroundImageFix" result="effect1_dropShadow_24_564"/><feBlend in="SourceGraphic" in2="effect1_dropShadow_24_564" result="shape"/></filter><filter id="prefix__d" width="33" height="68" x="43" y="60" color-interpolation-filters="sRGB" filterUnits="userSpaceOnUse"><feFlood flood-opacity="0" result="BackgroundImageFix"/><feColorMatrix in="SourceAlpha" result="hardAlpha" values="0 0 0 0 0 0 0 0 0 0 0 0 0 0 0 0 0 0 127 0"/><feOffset dy="4"/><feGaussianBlur stdDeviation="2"/><feComposite in2="hardAlpha" operator="out"/><feColorMatrix values="0 0 0 0 0.00392157 0 0 0 0 0.878431 0 0 0 0 0.929412 0 0 0 0.25 0"/><feBlend in2="BackgroundImageFix" result="effect1_dropShadow_24_564"/><feBlend in="SourceGraphic" in2="effect1_dropShadow_24_564" result="shape"/></filter><filter id="prefix__f" width="33" height="88" x="72" y="40" color-interpolation-filters="sRGB" filterUnits="userSpaceOnUse"><feFlood flood-opacity="0" result="BackgroundImageFix"/><feColorMatrix in="SourceAlpha" result="hardAlpha" values="0 0 0 0 0 0 0 0 0 0 0 0 0 0 0 0 0 0 127 0"/><feOffset dy="4"/><feGaussianBlur stdDeviation="2"/><feComposite in2="hardAlpha" operator="out"/><feColorMatrix values="0 0 0 0 0.00392157 0 0 0 0 0.878431 0 0 0 0 0.929412 0 0 0 0.25 0"/><feBlend in2="BackgroundImageFix" result="effect1_dropShadow_24_564"/><feBlend in="SourceGraphic" in2="effect1_dropShadow_24_564" result="shape"/></filter><filter id="prefix__h" width="39.586" height="39.586" x="8" y="42" color-interpolation-filters="sRGB" filterUnits="userSpaceOnUse"><feFlood flood-opacity="0" result="BackgroundImageFix"/><feColorMatrix in="SourceAlpha" result="hardAlpha" values="0 0 0 0 0 0 0 0 0 0 0 0 0 0 0 0 0 0 127 0"/><feOffset dy="4"/><feGaussianBlur stdDeviation="2"/><feComposite in2="hardAlpha" operator="out"/><feColorMatrix values="0 0 0 0 0.00392157 0 0 0 0 0.878431 0 0 0 0 0.929412 0 0 0 0.25 0"/><feBlend in2="BackgroundImageFix" result="effect1_dropShadow_24_564"/><feBlend in="SourceGraphic" in2="effect1_dropShadow_24_564" result="shape"/></filter><filter id="prefix__i" width="26.213" height="17.548" x="38" y="42" color-interpolation-filters="sRGB" filterUnits="userSpaceOnUse"><feFlood flood-opacity="0" result="BackgroundImageFix"/><feColorMatrix in="SourceAlpha" result="hardAlpha" values="0 0 0 0 0 0 0 0 0 0 0 0 0 0 0 0 0 0 127 0"/><feOffset dy="4"/><feGaussianBlur stdDeviation="2"/><feComposite in2="hardAlpha" operator="out"/><feColorMatrix values="0 0 0 0 0.00392157 0 0 0 0 0.878431 0 0 0 0 0.929412 0 0 0 0.25 0"/><feBlend in2="BackgroundImageFix" result="effect1_dropShadow_24_564"/><feBlend in="SourceGraphic" in2="effect1_dropShadow_24_564" result="shape"/></filter><filter id="prefix__j" width="42.478" height="37.702" x="54.112" y="21.888" color-interpolation-filters="sRGB" filterUnits="userSpaceOnUse"><feFlood flood-opacity="0" result="BackgroundImageFix"/><feColorMatrix in="SourceAlpha" result="hardAlpha" values="0 0 0 0 0 0 0 0 0 0 0 0 0 0 0 0 0 0 127 0"/><feOffset dy="4"/><feGaussianBlur stdDeviation="2"/><feComposite in2="hardAlpha" operator="out"/><feColorMatrix values="0 0 0 0 0.00392157 0 0 0 0 0.878431 0 0 0 0 0.929412 0 0 0 0.25 0"/><feBlend in2="BackgroundImageFix" result="effect1_dropShadow_24_564"/><feBlend in="SourceGraphic" in2="effect1_dropShadow_24_564" result="shape"/></filter><linearGradient id="prefix__c" x1="30.5" x2="30.5" y1="75" y2="120" gradientUnits="userSpaceOnUse"><stop stop-color="#01E0ED"/><stop offset="1" stop-color="#D9D9D9" stop-opacity="0"/></linearGradient><linearGradient id="prefix__e" x1="59.5" x2="59.5" y1="60" y2="120" gradientUnits="userSpaceOnUse"><stop stop-color="#01E0ED"/><stop offset="1" stop-color="#D9D9D9" stop-opacity="0"/></linearGradient><linearGradient id="prefix__g" x1="88.5" x2="88.5" y1="40" y2="120" gradientUnits="userSpaceOnUse"><stop stop-color="#01E0ED"/><stop offset="1" stop-color="#D9D9D9" stop-opacity="0"/></linearGradient><clipPath id="prefix__a"><path fill="#fff" d="M0 0h120v120H0z"/></clipPath></defs></svg>