<svg width="80" height="80" fill="none" xmlns="http://www.w3.org/2000/svg"><rect width="80" height="80" fill="url(#prefix__a)" rx="20"/><path fill="#fff" d="M20.313 65.39V51.21a.14.14 0 0 0 .033-.064c0-8.918 9.175-10.897 12.176-11.19l.064-.006h5.993q2.768 0 4.622-.967 1.879-.966 2.842-2.702.964-1.761.964-4.092.001-2.355-.964-4.066-.964-1.736-2.842-2.678t-4.622-.942h-6.031v14.25c-2.974-.282-12.202-2.248-12.202-11.191a.14.14 0 0 0-.034-.064V14.609h20.912q5.685 0 9.812 2.232 4.153 2.207 6.402 6.174 2.25 3.942 2.25 9.174 0 5.257-2.3 9.2-2.273 3.916-6.5 6.075-4.227 2.157-10.035 2.157h-8.305v15.77z"/><defs><linearGradient id="prefix__a" x1="40" x2="40" y1="0" y2="80" gradientUnits="userSpaceOnUse"><stop stop-color="#383838"/><stop offset="1" stop-color="#262626"/></linearGradient></defs></svg>