<svg width="484" height="482" fill="none" xmlns="http://www.w3.org/2000/svg"><path fill="#232323" d="M0 0h484v482H0z"/><path stroke="#FAFAFA" stroke-linecap="round" stroke-linejoin="round" stroke-miterlimit="10" stroke-width="5" d="M87.669 306.363c-.123-.278.079-.729 0-2.168-.054-.997 0-2.471 0-2.471v-15.087 2.975-4.195c0-29.758-1.483-73.997 18.694-97.052 1.068-1.22 1.743-1.784 3.024-2.849.855-.711 1.767-1.502 2.729-2.122 13.779-8.879 38.185-8.167 53.341 1.124 0 0 1.018.653 2.423 1.743.256.199 1.164.998 1.624 1.462.45.453.851.871 1.282 1.403 8.402 10.385 13.451 35.498 15.442 57.268.605 6.623.928 12.937.976 18.432.054 6.162 0 11.842 0 15.251 0 2.435-.093 5.334-.045 8.354.023 1.432.045 2.449.045 2.449l.024 15.45"/><path stroke="#FAFAFA" stroke-linecap="round" stroke-linejoin="round" stroke-miterlimit="10" stroke-width="5" d="M87.628 266.91c0-10.099 12.207-20.655 18.912-25.166 2.67-1.796 4.21-2.662 7.781-4.257 4.035-1.801 12.219-3.948 18.494-4.516 4.616-.417 7.876-.184 11.209 0 18.423 1.02 36.765 16.957 43.204 32.705m103.918-85.224c-16.139 0-33.75-1.114-48.733-.005-10.464.774-18.24.276-24.743 4.354-.66.414-3.092 2.609-3.092 2.609-.913 1.025-3.196 4.343-3.196 4.343s-4.924 6.954-4.826 15.291c.054 4.54-.232 17.008.767 21.799.542 2.601.914 3.871 2.308 5.671 1.664 2.148 4.654 4.701 9.371 6.355 3.262 1.144 5.234 1.15 6.98 1.385 2.893.39 5.629.475 16.018.532 9.489.052 32.012-.038 32.012-.038s2.169-.046 4.273.294 2.759.354 3.818.886c0 0 1.58.716 2.995 1.587 1.414.871 2.97 2.681 3.424 2.842l2.311 2.403 1.217 2.416 1.03 3.977s.526 6.899.615 11.988c.072 4.136-.05 7.766-.131 15.617-.013 1.242-.322 2.346-.56 3.112-.453 1.456-1.226 2.437-1.974 3.485-.654.917-2.271 2.307-3.77 3.812 0 0-.936.809-2.557 1.981-.842.609-2.699 1.519-2.907 1.681l-2.906 1.077s.251.392-3.645.869c-3.332.409-1.759-.051-7.203.425-.689.061 2.936-.155-2.536.165-3.75.219-.241.021-17.627.153-6.329.048 46.229-.495-9.737.038l.103.03-23.974.138m102.466-121.769c-.408 23.114-.623 31.185-.623 43.307 0 22.501-5.823 57.841 16.816 71.424 2.444 1.467 4.715 2.351 7.749 2.857 14.609 2.435 27.725.667 53.472.654"/><path stroke="#FAFAFA" stroke-linecap="round" stroke-linejoin="round" stroke-miterlimit="10" stroke-width=".312" d="M323.552 285.005c-.119.595-.119.298 0 .893m2.409 1.963-.089.178"/><path fill="#fff" d="M164.306 325.902v12.007h1.149q.317 0 .451.118a.4.4 0 0 1 .133.313.4.4 0 0 1-.133.308q-.134.122-.451.122h-2.021v-1.712q-1.495 2.05-3.804 2.051a4.4 4.4 0 0 1-2.24-.62 4.4 4.4 0 0 1-1.692-1.769 4.9 4.9 0 0 1-.62-2.369q0-1.23.62-2.374a4.46 4.46 0 0 1 1.692-1.768 4.4 4.4 0 0 1 2.251-.626q2.255 0 3.793 2.051v-4.861h-1.148q-.318 0-.451-.122a.42.42 0 0 1-.133-.319.4.4 0 0 1 .133-.307q.133-.123.451-.123zm-.872 8.449q0-1.64-1.107-2.769-1.108-1.127-2.635-1.127-1.538 0-2.646 1.127-1.107 1.129-1.107 2.769 0 1.63 1.107 2.764 1.108 1.133 2.646 1.133 1.527 0 2.635-1.133t1.107-2.764m9.68-8.88v2.225h-1.271v-2.225zm.031 4.42v8.018h3.384q.318 0 .451.118a.4.4 0 0 1 .133.313.4.4 0 0 1-.133.308q-.133.122-.451.122H168.9q-.308 0-.441-.122a.4.4 0 0 1-.133-.308q0-.195.133-.313t.441-.118h3.384v-7.147h-2.512q-.308 0-.447-.123a.4.4 0 0 1-.138-.307q0-.195.133-.318t.452-.123zm15.043 1.579v-1.579h2.019q.308 0 .441.123a.41.41 0 0 1 .134.318.4.4 0 0 1-.134.307q-.133.123-.441.123h-1.158v8.603q0 .861-.369 1.538-.247.452-.821.933-.573.483-1.046.687-.47.206-1.261.206h-2.44q-.307 0-.441-.118a.4.4 0 0 1-.134-.313q0-.195.134-.318t.441-.123l2.471.01q.759 0 1.369-.389.61-.39 1.01-1.139.226-.43.226-1.097v-2.584q-1.385 1.897-3.569 1.897-1.773 0-3.061-1.317-1.286-1.319-1.286-3.174 0-1.856 1.286-3.169t3.061-1.312q2.184 0 3.569 1.887m0 2.594q0-1.518-1.041-2.563t-2.487-1.046-2.481 1.051q-1.036 1.051-1.036 2.558 0 1.518 1.036 2.569 1.035 1.05 2.481 1.051t2.487-1.051 1.041-2.569m10.13-8.593v2.225h-1.271v-2.225zm.031 4.42v8.018h3.384q.318 0 .451.118a.4.4 0 0 1 .133.313.4.4 0 0 1-.133.308q-.133.122-.451.122h-7.629q-.308 0-.441-.122a.4.4 0 0 1-.133-.308q0-.195.133-.313t.441-.118h3.384v-7.147h-2.512q-.308 0-.446-.123a.4.4 0 0 1-.139-.307q0-.195.133-.318.134-.123.452-.123zm10.377 0h4.676q.308 0 .441.123a.41.41 0 0 1 .133.318.4.4 0 0 1-.133.307q-.133.123-.441.123h-4.676v5.732q0 .749.6 1.251.6.503 1.759.503.871 0 1.886-.262 1.015-.261 1.579-.589.206-.134.339-.134.164 0 .287.128a.43.43 0 0 1 .123.303.4.4 0 0 1-.133.287q-.329.339-1.595.733-1.266.395-2.425.395-1.508 0-2.399-.707-.893-.708-.893-1.908v-5.732h-1.589q-.308 0-.441-.123a.41.41 0 0 1-.133-.318.4.4 0 0 1 .133-.307q.134-.123.441-.123h1.589v-2.543q0-.307.124-.441a.4.4 0 0 1 .307-.134q.195 0 .318.134.123.133.123.441zm16.847 8.879v-1.24q-1.876 1.579-4.009 1.579-1.548 0-2.42-.785-.872-.783-.872-1.922 0-1.251 1.149-2.184t3.353-.933q.594 0 1.292.076.697.077 1.507.242v-1.395q0-.708-.656-1.23-.657-.523-1.969-.523-1.005 0-2.819.584-.329.103-.421.103a.38.38 0 0 1-.282-.123.43.43 0 0 1-.118-.308q0-.174.103-.277.143-.153 1.159-.42 1.599-.43 2.419-.431 1.63 0 2.543.805.913.804.913 1.82v5.701h1.148q.319 0 .451.118a.4.4 0 0 1 .134.313.4.4 0 0 1-.134.308q-.133.122-.451.122zm0-4.286a8 8 0 0 0-1.282-.256 12 12 0 0 0-1.425-.082q-1.876 0-2.932.81-.8.605-.8 1.446 0 .779.61 1.312.61.534 1.779.534 1.117 0 2.076-.446.96-.447 1.974-1.421zm10.562-8.582v12.007h3.384q.318 0 .451.118a.4.4 0 0 1 .133.313.4.4 0 0 1-.133.308q-.133.122-.451.122h-7.629q-.309 0-.441-.122a.4.4 0 0 1-.133-.308q0-.195.133-.313.132-.118.441-.118h3.383v-11.136h-2.481q-.308 0-.446-.122a.41.41 0 0 1-.139-.319q0-.184.134-.307.133-.123.451-.123zm16.56 6.316v1.231h-8.788v-1.231zm11.054-1.763q0-.298.123-.431a.4.4 0 0 1 .307-.133q.195 0 .318.133t.123.451v1.477q0 .308-.123.441a.41.41 0 0 1-.318.133.4.4 0 0 1-.292-.113q-.118-.112-.138-.369-.062-.616-.636-1.015-.841-.574-2.225-.574-1.446 0-2.246.584-.605.441-.605.984 0 .616.718 1.026.492.286 1.866.441 1.794.195 2.492.441.994.358 1.482.994.486.636.486 1.374 0 1.098-1.055 1.954-1.057.856-3.097.856t-3.343-1.036q0 .35-.041.451a.42.42 0 0 1-.39.246.4.4 0 0 1-.307-.133q-.124-.132-.123-.441v-1.774q0-.307.117-.44a.4.4 0 0 1 .313-.134q.185 0 .313.128.128.129.128.344 0 .472.236.789.359.493 1.143.815.784.324 1.923.324 1.681 0 2.502-.626.82-.625.82-1.323 0-.8-.83-1.281-.841-.483-2.446-.646-1.605-.165-2.302-.431-.697-.267-1.087-.8a1.9 1.9 0 0 1-.389-1.148q0-1.108 1.087-1.759t2.594-.651q1.784 0 2.902.872m7.987-.564h4.676q.307 0 .441.123a.41.41 0 0 1 .133.318.4.4 0 0 1-.133.307q-.133.123-.441.123h-4.676v5.732q0 .749.6 1.251.6.503 1.759.503.871 0 1.887-.262 1.014-.261 1.579-.589.204-.134.338-.134.164 0 .287.128a.4.4 0 0 1-.01.59q-.328.339-1.595.733-1.266.395-2.425.395-1.507 0-2.399-.707-.892-.708-.892-1.908v-5.732h-1.589q-.309 0-.441-.123a.41.41 0 0 1-.134-.318.4.4 0 0 1 .134-.307q.132-.123.441-.123h1.589v-2.543q0-.307.123-.441a.4.4 0 0 1 .307-.134q.195 0 .318.134.123.133.123.441zm17.319 8.879v-1.261q-1.764 1.6-3.814 1.6-1.261 0-1.918-.687-.85-.903-.851-2.102v-5.558h-1.159q-.308 0-.441-.123a.42.42 0 0 1-.133-.318q0-.184.133-.307t.441-.123h2.021v6.429q0 .84.533 1.384.532.544 1.333.544 2.101 0 3.855-1.928v-5.558h-1.589q-.308 0-.441-.123a.41.41 0 0 1-.133-.318.4.4 0 0 1 .133-.307q.134-.123.441-.123h2.45v8.018h.728q.308 0 .441.118a.4.4 0 0 1 .134.313.4.4 0 0 1-.134.308q-.133.122-.441.122zm13.874-12.868v12.007h1.148q.318 0 .451.118a.4.4 0 0 1 .134.313.4.4 0 0 1-.134.308q-.133.122-.451.122h-2.02v-1.712q-1.497 2.05-3.804 2.051a4.4 4.4 0 0 1-2.241-.62 4.43 4.43 0 0 1-1.692-1.769q-.62-1.149-.62-2.369 0-1.23.62-2.374a4.47 4.47 0 0 1 1.692-1.768 4.4 4.4 0 0 1 2.251-.626q2.256 0 3.794 2.051v-4.861h-1.148q-.318 0-.452-.122a.42.42 0 0 1-.133-.319q0-.184.133-.307.134-.123.452-.123zm-.872 8.449q0-1.64-1.107-2.769-1.108-1.127-2.636-1.127-1.538 0-2.645 1.127-1.107 1.129-1.107 2.769 0 1.63 1.107 2.764t2.645 1.133q1.528 0 2.636-1.133 1.107-1.134 1.107-2.764m9.68-8.88v2.225h-1.272v-2.225zm.031 4.42v8.018h3.383q.318 0 .452.118a.4.4 0 0 1 .133.313.4.4 0 0 1-.133.308q-.134.122-.452.122h-7.629q-.307 0-.441-.122a.4.4 0 0 1-.133-.308.4.4 0 0 1 .133-.313q.134-.118.441-.118h3.384v-7.147h-2.512q-.308 0-.446-.123a.4.4 0 0 1-.139-.307q0-.195.134-.318.133-.123.451-.123zm16.96 4.46q0 1.969-1.41 3.363-1.41 1.395-3.399 1.395-2.01 0-3.415-1.4t-1.405-3.358q0-1.969 1.405-3.368 1.405-1.4 3.415-1.4 1.989 0 3.399 1.395 1.41 1.394 1.41 3.373m-.872 0q0-1.62-1.154-2.758t-2.794-1.138-2.794 1.143-1.154 2.753q0 1.6 1.154 2.748t2.794 1.149q1.64 0 2.794-1.144t1.154-2.753"/></svg>