<svg width="484" height="482" viewBox="0 0 484 482" fill="none" xmlns="http://www.w3.org/2000/svg">
<rect width="484" height="482" fill="#232323"/>
<path d="M87.669 306.363C87.5465 306.085 87.7475 305.634 87.669 304.195C87.6145 303.198 87.669 301.724 87.669 301.724C87.669 298.532 87.669 298.839 87.669 298.839V293.758V286.637V289.612C87.669 288.48 87.669 286.586 87.669 285.417C87.669 255.659 86.1856 211.42 106.363 188.365C107.431 187.145 108.106 186.581 109.387 185.516C110.242 184.805 111.154 184.014 112.116 183.394C125.895 174.515 150.301 175.227 165.457 184.518C165.457 184.518 166.475 185.171 167.88 186.261C168.136 186.46 169.044 187.259 169.504 187.723C169.954 188.176 170.355 188.594 170.786 189.126C179.188 199.511 184.237 224.624 186.228 246.394C186.833 253.017 187.156 259.331 187.204 264.826C187.258 270.988 187.204 276.668 187.204 280.077C187.204 282.512 187.111 285.411 187.159 288.431C187.182 289.863 187.204 290.88 187.204 290.88C187.204 290.88 187.228 306.301 187.228 306.33" stroke="#FAFAFA" stroke-width="5" stroke-miterlimit="10" stroke-linecap="round" stroke-linejoin="round"/>
<path d="M87.6283 266.91C87.6283 256.811 99.8349 246.255 106.54 241.744C109.21 239.948 110.75 239.082 114.321 237.487C118.356 235.686 126.54 233.539 132.815 232.971C137.431 232.554 140.691 232.787 144.024 232.971C162.447 233.991 180.789 249.928 187.228 265.676" stroke="#FAFAFA" stroke-width="5" stroke-miterlimit="10" stroke-linecap="round" stroke-linejoin="round"/>
<path d="M291.146 180.452C275.007 180.452 257.396 179.338 242.413 180.447C231.949 181.221 224.173 180.723 217.67 184.801C217.01 185.215 214.578 187.41 214.578 187.41C213.665 188.435 211.382 191.753 211.382 191.753C211.382 191.753 206.458 198.707 206.556 207.044C206.61 211.584 206.324 224.052 207.323 228.843C207.865 231.444 208.237 232.714 209.631 234.514C211.295 236.662 214.285 239.215 219.002 240.869C222.264 242.013 224.236 242.019 225.982 242.254C228.875 242.644 231.611 242.729 242 242.786C251.489 242.838 274.012 242.748 274.012 242.748C274.012 242.748 276.181 242.702 278.285 243.042C280.388 243.382 281.044 243.396 282.103 243.928C282.103 243.928 283.683 244.644 285.098 245.515C286.512 246.386 288.068 248.196 288.522 248.357L290.833 250.76L292.05 253.176L293.08 257.153C293.08 257.153 293.606 264.052 293.695 269.141C293.767 273.277 293.645 276.907 293.564 284.758C293.551 286 293.242 287.104 293.004 287.87C292.551 289.326 291.778 290.307 291.03 291.355C290.376 292.272 288.759 293.662 287.26 295.167C287.26 295.167 286.324 295.976 284.703 297.148C283.861 297.757 282.004 298.667 281.796 298.829L278.89 299.906C278.89 299.906 279.141 300.298 275.245 300.775C271.913 301.184 273.486 300.724 268.042 301.2C267.353 301.261 270.978 301.045 265.506 301.365C261.756 301.584 265.265 301.386 247.879 301.518C241.55 301.566 294.108 301.023 238.142 301.556L238.245 301.586L214.271 301.724" stroke="#FAFAFA" stroke-width="5" stroke-miterlimit="10" stroke-linecap="round" stroke-linejoin="round"/>
<path d="M316.737 179.955C316.329 203.069 316.114 211.14 316.114 223.262C316.114 245.763 310.291 281.103 332.93 294.686C335.374 296.153 337.645 297.037 340.679 297.543C355.288 299.978 368.404 298.21 394.151 298.197" stroke="#FAFAFA" stroke-width="5" stroke-miterlimit="10" stroke-linecap="round" stroke-linejoin="round"/>
<path d="M323.552 285.005C323.433 285.6 323.433 285.303 323.552 285.898" stroke="#FAFAFA" stroke-width="0.311763" stroke-miterlimit="10" stroke-linecap="round" stroke-linejoin="round"/>
<path d="M325.961 287.861C325.931 287.92 325.902 287.98 325.872 288.039" stroke="#FAFAFA" stroke-width="0.311763" stroke-miterlimit="10" stroke-linecap="round" stroke-linejoin="round"/>
<path d="M164.306 325.902V337.909H165.455C165.666 337.909 165.817 337.949 165.906 338.027C165.995 338.106 166.039 338.21 166.039 338.34C166.039 338.463 165.995 338.566 165.906 338.648C165.817 338.729 165.666 338.77 165.455 338.77H163.434V337.058C162.437 338.425 161.169 339.109 159.63 339.109C158.851 339.109 158.104 338.902 157.39 338.489C156.676 338.075 156.111 337.486 155.698 336.72C155.284 335.954 155.078 335.165 155.078 334.351C155.078 333.531 155.284 332.74 155.698 331.977C156.111 331.215 156.676 330.626 157.39 330.209C158.104 329.791 158.854 329.583 159.641 329.583C161.144 329.583 162.409 330.267 163.434 331.634V326.773H162.286C162.074 326.773 161.924 326.733 161.835 326.651C161.746 326.568 161.702 326.462 161.702 326.332C161.702 326.21 161.746 326.107 161.835 326.025C161.924 325.943 162.074 325.902 162.286 325.902H164.306ZM163.434 334.351C163.434 333.257 163.066 332.335 162.327 331.582C161.589 330.831 160.71 330.455 159.692 330.455C158.666 330.455 157.785 330.831 157.046 331.582C156.308 332.335 155.939 333.257 155.939 334.351C155.939 335.438 156.308 336.359 157.046 337.115C157.785 337.87 158.666 338.248 159.692 338.248C160.71 338.248 161.589 337.87 162.327 337.115C163.066 336.359 163.434 335.438 163.434 334.351Z" fill="white"/>
<path d="M173.114 325.471V327.696H171.843V325.471H173.114ZM173.145 329.891V337.909H176.529C176.741 337.909 176.891 337.949 176.98 338.027C177.069 338.106 177.113 338.21 177.113 338.34C177.113 338.463 177.069 338.566 176.98 338.648C176.891 338.729 176.741 338.77 176.529 338.77H168.9C168.695 338.77 168.548 338.729 168.459 338.648C168.37 338.566 168.326 338.463 168.326 338.34C168.326 338.21 168.37 338.106 168.459 338.027C168.548 337.949 168.695 337.909 168.9 337.909H172.284V330.762H169.772C169.566 330.762 169.418 330.721 169.325 330.639C169.233 330.557 169.187 330.455 169.187 330.332C169.187 330.202 169.232 330.096 169.32 330.014C169.409 329.932 169.559 329.891 169.772 329.891H173.145Z" fill="white"/>
<path d="M188.188 331.47V329.891H190.207C190.412 329.891 190.559 329.932 190.648 330.014C190.737 330.096 190.782 330.202 190.782 330.332C190.782 330.455 190.737 330.557 190.648 330.639C190.559 330.721 190.412 330.762 190.207 330.762H189.049V339.365C189.049 339.939 188.926 340.452 188.68 340.903C188.515 341.204 188.242 341.515 187.859 341.836C187.477 342.158 187.128 342.387 186.813 342.523C186.499 342.66 186.079 342.729 185.552 342.729H183.112C182.907 342.729 182.76 342.689 182.671 342.611C182.582 342.532 182.537 342.428 182.537 342.298C182.537 342.168 182.582 342.062 182.671 341.98C182.76 341.898 182.907 341.857 183.112 341.857L185.583 341.867C186.089 341.867 186.545 341.737 186.952 341.478C187.359 341.218 187.695 340.839 187.962 340.339C188.112 340.052 188.188 339.687 188.188 339.242V336.658C187.265 337.923 186.075 338.555 184.619 338.555C183.437 338.555 182.416 338.116 181.558 337.238C180.7 336.359 180.272 335.301 180.272 334.064C180.272 332.827 180.7 331.77 181.558 330.895C182.416 330.02 183.437 329.583 184.619 329.583C186.075 329.583 187.265 330.212 188.188 331.47ZM188.188 334.064C188.188 333.052 187.841 332.198 187.147 331.501C186.453 330.803 185.624 330.455 184.66 330.455C183.696 330.455 182.869 330.805 182.179 331.506C181.488 332.207 181.143 333.059 181.143 334.064C181.143 335.076 181.488 335.932 182.179 336.633C182.869 337.333 183.696 337.684 184.66 337.684C185.624 337.684 186.453 337.333 187.147 336.633C187.841 335.932 188.188 335.076 188.188 334.064Z" fill="white"/>
<path d="M198.318 325.471V327.696H197.047V325.471H198.318ZM198.349 329.891V337.909H201.733C201.945 337.909 202.095 337.949 202.184 338.027C202.273 338.106 202.317 338.21 202.317 338.34C202.317 338.463 202.273 338.566 202.184 338.648C202.095 338.729 201.945 338.77 201.733 338.77H194.104C193.899 338.77 193.752 338.729 193.663 338.648C193.574 338.566 193.53 338.463 193.53 338.34C193.53 338.21 193.574 338.106 193.663 338.027C193.752 337.949 193.899 337.909 194.104 337.909H197.488V330.762H194.976C194.771 330.762 194.622 330.721 194.53 330.639C194.437 330.557 194.391 330.455 194.391 330.332C194.391 330.202 194.436 330.096 194.524 330.014C194.613 329.932 194.764 329.891 194.976 329.891H198.349Z" fill="white"/>
<path d="M208.726 329.891H213.402C213.607 329.891 213.754 329.932 213.843 330.014C213.932 330.096 213.976 330.202 213.976 330.332C213.976 330.455 213.932 330.557 213.843 330.639C213.754 330.721 213.607 330.762 213.402 330.762H208.726V336.494C208.726 336.993 208.926 337.41 209.326 337.745C209.726 338.08 210.312 338.248 211.085 338.248C211.666 338.248 212.294 338.16 212.971 337.986C213.648 337.812 214.174 337.615 214.55 337.397C214.687 337.308 214.8 337.263 214.889 337.263C214.998 337.263 215.094 337.306 215.176 337.391C215.258 337.477 215.299 337.578 215.299 337.694C215.299 337.796 215.254 337.892 215.166 337.981C214.947 338.207 214.415 338.451 213.571 338.714C212.727 338.977 211.919 339.109 211.146 339.109C210.141 339.109 209.341 338.873 208.747 338.402C208.152 337.93 207.854 337.294 207.854 336.494V330.762H206.265C206.06 330.762 205.913 330.721 205.824 330.639C205.735 330.557 205.691 330.451 205.691 330.321C205.691 330.198 205.735 330.096 205.824 330.014C205.913 329.932 206.06 329.891 206.265 329.891H207.854V327.348C207.854 327.143 207.896 326.996 207.978 326.907C208.059 326.818 208.162 326.773 208.285 326.773C208.415 326.773 208.521 326.818 208.603 326.907C208.685 326.996 208.726 327.143 208.726 327.348V329.891Z" fill="white"/>
<path d="M225.573 338.77V337.53C224.322 338.582 222.986 339.109 221.564 339.109C220.532 339.109 219.725 338.847 219.144 338.324C218.563 337.802 218.272 337.161 218.272 336.402C218.272 335.568 218.655 334.84 219.421 334.218C220.187 333.596 221.304 333.285 222.774 333.285C223.17 333.285 223.601 333.31 224.066 333.361C224.531 333.413 225.033 333.493 225.573 333.603V332.208C225.573 331.736 225.354 331.326 224.917 330.978C224.479 330.629 223.823 330.455 222.948 330.455C222.278 330.455 221.338 330.649 220.129 331.039C219.91 331.108 219.769 331.142 219.708 331.142C219.599 331.142 219.505 331.1 219.426 331.019C219.347 330.937 219.308 330.834 219.308 330.711C219.308 330.595 219.342 330.502 219.411 330.434C219.506 330.332 219.893 330.192 220.57 330.014C221.636 329.727 222.442 329.583 222.989 329.583C224.076 329.583 224.924 329.851 225.532 330.388C226.141 330.924 226.445 331.531 226.445 332.208V337.909H227.593C227.805 337.909 227.956 337.949 228.044 338.027C228.133 338.106 228.178 338.21 228.178 338.34C228.178 338.463 228.133 338.566 228.044 338.648C227.956 338.729 227.805 338.77 227.593 338.77H225.573ZM225.573 334.484C225.17 334.368 224.743 334.283 224.291 334.228C223.84 334.173 223.365 334.146 222.866 334.146C221.615 334.146 220.638 334.416 219.934 334.956C219.401 335.359 219.134 335.841 219.134 336.402C219.134 336.921 219.337 337.359 219.744 337.714C220.151 338.07 220.744 338.248 221.523 338.248C222.268 338.248 222.96 338.099 223.599 337.802C224.239 337.504 224.897 337.031 225.573 336.381V334.484Z" fill="white"/>
<path d="M236.135 325.902V337.909H239.519C239.731 337.909 239.881 337.949 239.97 338.027C240.059 338.106 240.103 338.21 240.103 338.34C240.103 338.463 240.059 338.566 239.97 338.648C239.881 338.729 239.731 338.77 239.519 338.77H231.89C231.684 338.77 231.537 338.729 231.449 338.648C231.36 338.566 231.316 338.463 231.316 338.34C231.316 338.21 231.36 338.106 231.449 338.027C231.537 337.949 231.684 337.909 231.89 337.909H235.273V326.773H232.792C232.587 326.773 232.438 326.733 232.346 326.651C232.254 326.568 232.207 326.462 232.207 326.332C232.207 326.21 232.252 326.107 232.341 326.025C232.43 325.943 232.58 325.902 232.792 325.902H236.135Z" fill="white"/>
<path d="M252.695 332.218V333.449H243.907V332.218H252.695Z" fill="white"/>
<path d="M263.749 330.455C263.749 330.256 263.79 330.113 263.872 330.024C263.954 329.935 264.056 329.891 264.179 329.891C264.309 329.891 264.415 329.935 264.497 330.024C264.579 330.113 264.62 330.263 264.62 330.475V331.952C264.62 332.157 264.579 332.304 264.497 332.393C264.415 332.482 264.309 332.526 264.179 332.526C264.063 332.526 263.966 332.488 263.887 332.413C263.809 332.338 263.762 332.215 263.749 332.044C263.707 331.634 263.496 331.295 263.113 331.029C262.552 330.646 261.811 330.455 260.888 330.455C259.924 330.455 259.175 330.649 258.642 331.039C258.239 331.333 258.037 331.661 258.037 332.023C258.037 332.434 258.276 332.776 258.755 333.049C259.083 333.24 259.705 333.387 260.621 333.49C261.817 333.62 262.648 333.767 263.113 333.931C263.776 334.17 264.27 334.501 264.595 334.925C264.919 335.349 265.081 335.807 265.081 336.299C265.081 337.031 264.729 337.682 264.026 338.253C263.321 338.824 262.289 339.109 260.929 339.109C259.568 339.109 258.454 338.764 257.586 338.073C257.586 338.306 257.572 338.456 257.545 338.524C257.518 338.593 257.468 338.651 257.396 338.699C257.324 338.747 257.244 338.77 257.155 338.77C257.032 338.77 256.93 338.726 256.848 338.637C256.765 338.549 256.725 338.402 256.725 338.196V336.422C256.725 336.217 256.764 336.071 256.842 335.982C256.921 335.893 257.026 335.848 257.155 335.848C257.278 335.848 257.383 335.891 257.468 335.976C257.553 336.062 257.596 336.176 257.596 336.32C257.596 336.634 257.675 336.898 257.832 337.109C258.071 337.438 258.452 337.709 258.975 337.924C259.498 338.14 260.139 338.248 260.898 338.248C262.019 338.248 262.853 338.039 263.4 337.622C263.947 337.205 264.22 336.764 264.22 336.299C264.22 335.766 263.943 335.339 263.39 335.018C262.829 334.696 262.014 334.481 260.944 334.372C259.874 334.262 259.107 334.119 258.642 333.941C258.177 333.763 257.815 333.497 257.555 333.141C257.295 332.786 257.166 332.403 257.166 331.993C257.166 331.255 257.528 330.668 258.253 330.234C258.977 329.8 259.842 329.583 260.847 329.583C262.036 329.583 263.004 329.874 263.749 330.455Z" fill="white"/>
<path d="M271.736 329.891H276.412C276.617 329.891 276.764 329.932 276.853 330.014C276.942 330.096 276.986 330.202 276.986 330.332C276.986 330.455 276.942 330.557 276.853 330.639C276.764 330.721 276.617 330.762 276.412 330.762H271.736V336.494C271.736 336.993 271.936 337.41 272.336 337.745C272.736 338.08 273.322 338.248 274.095 338.248C274.676 338.248 275.305 338.16 275.982 337.986C276.658 337.812 277.184 337.615 277.561 337.397C277.697 337.308 277.81 337.263 277.899 337.263C278.008 337.263 278.104 337.306 278.186 337.391C278.268 337.477 278.309 337.578 278.309 337.694C278.309 337.796 278.265 337.892 278.176 337.981C277.957 338.207 277.426 338.451 276.581 338.714C275.737 338.977 274.929 339.109 274.156 339.109C273.151 339.109 272.352 338.873 271.757 338.402C271.162 337.93 270.865 337.294 270.865 336.494V330.762H269.276C269.07 330.762 268.923 330.721 268.835 330.639C268.746 330.557 268.701 330.451 268.701 330.321C268.701 330.198 268.746 330.096 268.835 330.014C268.923 329.932 269.07 329.891 269.276 329.891H270.865V327.348C270.865 327.143 270.906 326.996 270.988 326.907C271.07 326.818 271.172 326.773 271.295 326.773C271.425 326.773 271.531 326.818 271.613 326.907C271.695 326.996 271.736 327.143 271.736 327.348V329.891Z" fill="white"/>
<path d="M289.055 338.77V337.509C287.879 338.576 286.608 339.109 285.241 339.109C284.4 339.109 283.761 338.88 283.323 338.422C282.756 337.82 282.472 337.12 282.472 336.32V330.762H281.313C281.108 330.762 280.961 330.721 280.872 330.639C280.784 330.557 280.739 330.451 280.739 330.321C280.739 330.198 280.784 330.096 280.872 330.014C280.961 329.932 281.108 329.891 281.313 329.891H283.334V336.32C283.334 336.88 283.511 337.342 283.867 337.704C284.222 338.067 284.666 338.248 285.2 338.248C286.601 338.248 287.886 337.605 289.055 336.32V330.762H287.466C287.261 330.762 287.114 330.721 287.025 330.639C286.936 330.557 286.892 330.451 286.892 330.321C286.892 330.198 286.936 330.096 287.025 330.014C287.114 329.932 287.261 329.891 287.466 329.891H289.916V337.909H290.644C290.849 337.909 290.996 337.949 291.085 338.027C291.174 338.106 291.219 338.21 291.219 338.34C291.219 338.463 291.174 338.566 291.085 338.648C290.996 338.729 290.849 338.77 290.644 338.77H289.055Z" fill="white"/>
<path d="M302.929 325.902V337.909H304.077C304.289 337.909 304.439 337.949 304.528 338.027C304.617 338.106 304.662 338.21 304.662 338.34C304.662 338.463 304.617 338.566 304.528 338.648C304.439 338.729 304.289 338.77 304.077 338.77H302.057V337.058C301.059 338.425 299.791 339.109 298.253 339.109C297.474 339.109 296.727 338.902 296.012 338.489C295.298 338.075 294.734 337.486 294.32 336.72C293.907 335.954 293.7 335.165 293.7 334.351C293.7 333.531 293.907 332.74 294.32 331.977C294.734 331.215 295.298 330.626 296.012 330.209C296.727 329.791 297.477 329.583 298.263 329.583C299.767 329.583 301.032 330.267 302.057 331.634V326.773H300.909C300.697 326.773 300.546 326.733 300.457 326.651C300.369 326.568 300.324 326.462 300.324 326.332C300.324 326.21 300.369 326.107 300.457 326.025C300.546 325.943 300.697 325.902 300.909 325.902H302.929ZM302.057 334.351C302.057 333.257 301.688 332.335 300.95 331.582C300.211 330.831 299.333 330.455 298.314 330.455C297.289 330.455 296.407 330.831 295.669 331.582C294.931 332.335 294.562 333.257 294.562 334.351C294.562 335.438 294.931 336.359 295.669 337.115C296.407 337.87 297.289 338.248 298.314 338.248C299.333 338.248 300.211 337.87 300.95 337.115C301.688 336.359 302.057 335.438 302.057 334.351Z" fill="white"/>
<path d="M311.737 325.471V327.696H310.465V325.471H311.737ZM311.768 329.891V337.909H315.151C315.363 337.909 315.514 337.949 315.603 338.027C315.691 338.106 315.736 338.21 315.736 338.34C315.736 338.463 315.691 338.566 315.603 338.648C315.514 338.729 315.363 338.77 315.151 338.77H307.522C307.317 338.77 307.17 338.729 307.081 338.648C306.993 338.566 306.948 338.463 306.948 338.34C306.948 338.21 306.993 338.106 307.081 338.027C307.17 337.949 307.317 337.909 307.522 337.909H310.906V330.762H308.394C308.189 330.762 308.04 330.721 307.948 330.639C307.856 330.557 307.809 330.455 307.809 330.332C307.809 330.202 307.854 330.096 307.943 330.014C308.032 329.932 308.182 329.891 308.394 329.891H311.768Z" fill="white"/>
<path d="M328.728 334.351C328.728 335.663 328.258 336.785 327.318 337.714C326.378 338.644 325.245 339.109 323.919 339.109C322.579 339.109 321.441 338.642 320.504 337.709C319.567 336.776 319.099 335.657 319.099 334.351C319.099 333.038 319.567 331.916 320.504 330.983C321.441 330.049 322.579 329.583 323.919 329.583C325.245 329.583 326.378 330.048 327.318 330.978C328.258 331.907 328.728 333.032 328.728 334.351ZM327.856 334.351C327.856 333.271 327.471 332.352 326.702 331.593C325.933 330.834 325.002 330.455 323.908 330.455C322.814 330.455 321.883 330.836 321.114 331.598C320.345 332.36 319.96 333.278 319.96 334.351C319.96 335.417 320.345 336.334 321.114 337.099C321.883 337.865 322.814 338.248 323.908 338.248C325.002 338.248 325.933 337.866 326.702 337.104C327.471 336.342 327.856 335.424 327.856 334.351Z" fill="white"/>
</svg>
