<svg width="347" height="120" fill="none" xmlns="http://www.w3.org/2000/svg"><path fill="#01E0ED" fill-rule="evenodd" d="M26.116 58.753c-.057 10.93 7.958 17.446 20.747 14.484V44.27c-12.951-3.944-20.692 4.035-20.747 14.483M47.254 2.385H64.87v83.378c-16.884 2.76-33.055 4.511-44.624-1.958C5.349 75.477 4.15 49.012 15.938 37.224c5.977-5.976 18.008-10.183 30.925-7.438V3.56c-.034-.556-.065-1.11.391-1.175m46.191 18.398H75.83V2.385h17.615zm211.38 53.237c19.203 7.462 21.328-34.372 1.958-30.533-12.03 2.384-11.643 26.769-1.958 30.533m.783-45.017c14.665-1.568 25.728 4.904 30.142 14.875 7.531 17.014-.414 36.537-12.527 42.277-6.277 2.975-12.85 3.258-18.789 2.74-18.356-1.601-29.933-20.308-23.487-41.102 1.009-3.255 2.142-5.246 2.741-6.263 3.99-6.785 10.726-11.33 21.92-12.527M117.715 67.365c-4.872 8.188 7.369 10.15 15.266 7.83V63.058c-6.068.847-12.974.453-15.266 4.306m30.924 19.18c-14.551.838-36.665 5.795-44.625-3.913-4.677-5.704-4.174-16.584 0-21.921 5.394-6.897 17.168-8.401 27.792-9.395.965-2.375.315-6.24-.782-7.83-9.719-2.475-19.375 1.36-26.227 4.306v-13.7c10.349-4.755 34.321-9.761 41.493 1.174 3.767 5.744 2.349 15.761 2.349 24.661zm61.848.786h-17.615V64.624c0-7.475 1.209-16.954-2.741-19.964-3.093-2.358-10.432-1.175-14.874 0v42.67h-17.615V32.918c18.007-4.677 50.511-9.692 52.845 12.918 1.151 11.147-.853 27.872 0 41.493m26.227-18.789c2.964 4.795 10.991 6.594 17.615 3.522a564 564 0 0 1-.392-28.184c-15.223-4.022-24.296 13.221-17.223 24.661m44.233-37.188c-1.568 4.696-3.862 8.664-5.871 12.918-1.816.407-3.389-.721-4.307 0-.401 19.082 4.064 44.949-3.523 58.716-4.567 8.29-12.977 13.608-25.835 14.484-9.366.639-16.636-.891-23.487-3.523v-16.44c8.036 4.691 28.34 8.516 34.056-1.175 1.682-2.851 1.575-5.798 2.349-10.178-3.68.194-7.253 1.898-11.743 1.958-18.462.245-29.883-14.455-25.445-34.84 1.717-7.884 6.337-14.233 12.527-18.005 12.856-7.836 32.617-7.24 51.279-3.915" clip-rule="evenodd"/><path fill="#01E0ED" fill-rule="evenodd" d="M93.445 30.099c-.02 12.971-.017 22.292-.018 38.05-.749 15.487-.575 27.819-6.245 35.229-1.118 1.461-3.493 3.593-5.48 5.089-1.67 1.256-4.85 3.804-6.655 3.915-1.82.111-6.496-2.527-8.612-3.524-2.779-1.309-5.348-3.046-8.22-3.914 6.7-4.152 13.06-7.265 15.657-15.658 2.259-7.299 1.958-17.876 1.958-28.184 0-10.178.045-22.012.045-30.998z" clip-rule="evenodd"/></svg>