<svg width="120" height="107" fill="none" xmlns="http://www.w3.org/2000/svg"><g clip-path="url(#prefix__a)"><path fill="#01E0ED" d="M60 64.079c5.907 0 10.696-4.789 10.696-10.696S65.907 42.687 60 42.687s-10.696 4.789-10.696 10.696S54.093 64.079 60 64.079"/><path stroke="#01E0ED" stroke-width="2" d="M60 75.296c31.696 0 57.391-9.81 57.391-21.913S91.696 31.47 60 31.47 2.609 41.28 2.609 53.383 28.304 75.296 60 75.296Z"/><path stroke="#01E0ED" stroke-width="2" d="M41.023 64.34c15.848 27.45 37.192 44.796 47.673 38.745 10.48-6.05 6.13-33.209-9.719-60.658C63.13 14.976 41.785-2.37 31.304 3.68c-10.48 6.05-6.13 33.209 9.719 60.659Z"/><path stroke="#01E0ED" stroke-width="2" d="M41.023 42.427c-15.849 27.45-20.2 54.607-9.719 60.658S63.13 91.789 78.977 64.34c15.848-27.45 20.2-54.608 9.719-60.66C78.215-2.37 56.87 14.978 41.023 42.428Z"/></g><defs><clipPath id="prefix__a"><path fill="#fff" d="M0 0h120v106.766H0z"/></clipPath></defs></svg>