<svg width="347" height="120" viewBox="0 0 347 120" fill="none" xmlns="http://www.w3.org/2000/svg">
<path fill-rule="evenodd" clip-rule="evenodd" d="M26.1164 58.7534C26.0589 69.6834 34.0735 76.1993 46.8631 73.2368V44.2701C33.9118 40.326 26.1706 48.3055 26.1164 58.7534ZM47.2543 2.38511H64.8693V85.763C47.9847 88.5234 31.8135 90.2743 20.2447 83.8055C5.34892 75.4772 4.15141 49.0114 15.9385 37.2239C21.9147 31.248 33.946 27.0409 46.8631 29.7864V3.55971C46.8293 3.00387 46.7981 2.45052 47.2543 2.38511Z" fill="#01E0ED"/>
<path fill-rule="evenodd" clip-rule="evenodd" d="M93.4448 20.783H75.8298V2.38505H93.4448V20.783Z" fill="#01E0ED"/>
<path fill-rule="evenodd" clip-rule="evenodd" d="M304.825 74.0196C324.028 81.4821 326.153 39.6479 306.783 43.4867C294.753 45.8708 295.14 70.2558 304.825 74.0196ZM305.608 29.0033C320.273 27.4354 331.336 33.9066 335.75 43.8783C343.281 60.8921 335.336 80.4146 323.223 86.1546C316.946 89.1296 310.373 89.4129 304.434 88.8946C286.078 87.2937 274.501 68.5871 280.947 47.7925C281.956 44.5379 283.089 42.5471 283.688 41.5296C287.678 34.7454 294.414 30.2004 305.608 29.0033Z" fill="#01E0ED"/>
<path fill-rule="evenodd" clip-rule="evenodd" d="M117.715 67.3651C112.843 75.553 125.084 77.5147 132.981 75.1943V63.0592C126.913 63.9063 120.007 63.5122 117.715 67.3651ZM148.639 86.5459C134.088 87.383 111.974 92.3397 104.014 82.6318C99.3373 76.9276 99.8402 66.048 104.014 60.7105C109.408 53.8138 121.182 52.3097 131.806 51.3159C132.771 48.9409 132.121 45.0768 131.024 43.4864C121.305 41.0109 111.649 44.8468 104.797 47.7922V34.0922C115.146 29.3372 139.118 24.3305 146.29 35.2664C150.057 41.0101 148.639 51.0272 148.639 59.9272V86.5459Z" fill="#01E0ED"/>
<path fill-rule="evenodd" clip-rule="evenodd" d="M210.487 87.3293H192.872V64.6251C192.872 57.1497 194.081 47.6709 190.131 44.6614C187.038 42.303 179.699 43.4864 175.257 44.6614V87.3293H157.642V32.918C175.649 28.2405 208.153 23.2255 210.487 45.8355C211.638 56.983 209.634 73.7076 210.487 87.3293Z" fill="#01E0ED"/>
<path fill-rule="evenodd" clip-rule="evenodd" d="M236.714 68.5394C239.678 73.3352 247.705 75.1336 254.329 72.0623C253.965 62.9011 253.838 53.5032 253.937 43.8782C238.714 39.8561 229.641 57.0994 236.714 68.5394ZM280.947 31.3523C279.379 36.0477 277.085 40.0157 275.076 44.2702C273.26 44.6769 271.687 43.5486 270.769 44.2702C270.368 63.3515 274.833 89.219 267.246 102.986C262.679 111.276 254.269 116.594 241.411 117.47C232.045 118.109 224.775 116.579 217.924 113.947V97.5065C225.96 102.198 246.264 106.023 251.98 96.3319C253.662 93.4807 253.555 90.5336 254.329 86.1544C250.649 86.3477 247.076 88.0519 242.586 88.1119C224.124 88.3569 212.703 73.6573 217.141 53.2727C218.858 45.3877 223.478 39.039 229.668 35.2665C242.524 27.4311 262.285 28.0261 280.947 31.3523Z" fill="#01E0ED"/>
<path fill-rule="evenodd" clip-rule="evenodd" d="M93.445 30.099C93.425 43.0703 93.4279 52.3911 93.4266 68.1495C92.6783 83.6357 92.8525 95.9678 87.1821 103.378C86.0637 104.839 83.6887 106.971 81.7016 108.467C80.0329 109.723 76.8525 112.271 75.0471 112.382C73.2271 112.493 68.5512 109.855 66.435 108.858C63.6562 107.549 61.0875 105.812 58.215 104.944C64.9154 100.792 71.2758 97.6791 73.8725 89.2861C76.1308 81.987 75.83 71.4099 75.83 61.102C75.83 50.9236 75.8754 39.0903 75.8754 30.1036L93.445 30.099Z" fill="#01E0ED"/>
</svg>
