<svg width="120" height="107" viewBox="0 0 120 107" fill="none" xmlns="http://www.w3.org/2000/svg">
<g clip-path="url(#clip0_29_781)">
<path d="M60 64.0787C65.907 64.0787 70.6956 59.29 70.6956 53.383C70.6956 47.476 65.907 42.6873 60 42.6873C54.0929 42.6873 49.3043 47.476 49.3043 53.383C49.3043 59.29 54.0929 64.0787 60 64.0787Z" fill="#01E0ED"/>
<path d="M60 75.296C91.6963 75.296 117.391 65.4852 117.391 53.383C117.391 41.2807 91.6963 31.4699 60 31.4699C28.3036 31.4699 2.60864 41.2807 2.60864 53.383C2.60864 65.4852 28.3036 75.296 60 75.296Z" stroke="#01E0ED" stroke-width="2"/>
<path d="M41.0226 64.3395C56.8708 91.7893 78.2147 109.136 88.6956 103.085C99.1764 97.0342 94.8253 69.8763 78.9771 42.4265C63.129 14.9766 41.7851 -2.37046 31.3042 3.68066C20.8234 9.73178 25.1745 36.8897 41.0226 64.3395Z" stroke="#01E0ED" stroke-width="2"/>
<path d="M41.0227 42.4265C25.1745 69.8763 20.8234 97.0342 31.3043 103.085C41.7851 109.136 63.129 91.7893 78.9772 64.3395C94.8254 36.8897 99.1764 9.73178 88.6956 3.68066C78.2148 -2.37046 56.8709 14.9766 41.0227 42.4265Z" stroke="#01E0ED" stroke-width="2"/>
</g>
<defs>
<clipPath id="clip0_29_781">
<rect width="120" height="106.766" fill="white"/>
</clipPath>
</defs>
</svg>
