<svg width="60" height="60" fill="none" xmlns="http://www.w3.org/2000/svg"><g clip-path="url(#prefix__a)"><path fill="#179DA5" d="M35.625 5.625a5.625 5.625 0 1 1-11.25 0 5.625 5.625 0 0 1 11.25 0M30 48.75A5.625 5.625 0 1 0 30 60a5.625 5.625 0 0 0 0-11.25m24.375-24.375a5.625 5.625 0 1 0 0 11.25 5.625 5.625 0 0 0 0-11.25M11.25 30A5.625 5.625 0 1 0 0 30a5.625 5.625 0 0 0 11.25 0m1.514 11.61a5.625 5.625 0 1 0 0 11.25 5.625 5.625 0 0 0 0-11.25m34.472 0a5.625 5.625 0 1 0 0 11.25 5.625 5.625 0 0 0 0-11.25M12.764 7.14a5.625 5.625 0 1 0 0 11.25 5.625 5.625 0 0 0 0-11.25"/></g><defs><clipPath id="prefix__a"><path fill="#fff" d="M0 0h60v60H0z"/></clipPath></defs></svg>