<svg width="150" height="150" viewBox="0 0 150 150" fill="none" xmlns="http://www.w3.org/2000/svg">
<path d="M8.85813 103.013C8.80563 102.894 8.89179 102.701 8.85813 102.084C8.83479 101.656 8.85813 101.025 8.85813 101.025C8.85813 99.6566 8.85813 99.7881 8.85813 99.7881V97.6106V94.5587V95.8338C8.85813 95.3486 8.85813 94.5369 8.85813 94.0358C8.85813 81.2826 8.2224 62.3229 16.8701 52.4423C17.3276 51.9195 17.6168 51.6776 18.1658 51.2213C18.5324 50.9165 18.9233 50.5775 19.3356 50.3118C25.2408 46.5066 35.7006 46.8114 42.1959 50.7936C42.1959 50.7936 42.632 51.0735 43.2342 51.5405C43.3442 51.6258 43.7333 51.968 43.9304 52.1669C44.1233 52.3613 44.2952 52.5404 44.4795 52.7682C48.0806 57.2189 50.2443 67.9817 51.0977 77.3118C51.3572 80.1501 51.4955 82.856 51.516 85.2111C51.5391 87.8522 51.516 90.2864 51.516 91.7472C51.516 92.7909 51.4761 94.0332 51.4968 95.3277C51.5066 95.9414 51.516 96.3773 51.516 96.3773C51.516 96.3773 51.5264 102.986 51.5264 102.999" stroke="#FAFAFA" stroke-width="5" stroke-miterlimit="10" stroke-linecap="round" stroke-linejoin="round"/>
<path d="M8.84071 86.1041C8.84071 81.7759 14.0721 77.2522 16.9458 75.3187C18.09 74.5489 18.7498 74.1778 20.2806 73.4944C22.0095 72.7225 25.5169 71.8024 28.2063 71.5591C30.1846 71.3801 31.5821 71.4802 33.0104 71.5591C40.9059 71.9959 48.7665 78.8261 51.5263 85.5754" stroke="#FAFAFA" stroke-width="5" stroke-miterlimit="10" stroke-linecap="round" stroke-linejoin="round"/>
<path d="M96.0627 49.051C89.1459 49.051 81.5982 48.5737 75.177 49.0486C70.6925 49.3804 67.3598 49.1671 64.5728 50.9147C64.2899 51.0922 63.2478 52.0328 63.2478 52.0328C62.8565 52.472 61.8779 53.8943 61.8779 53.8943C61.8779 53.8943 59.7678 56.8744 59.8098 60.4477C59.8328 62.393 59.7104 67.7366 60.1383 69.7901C60.3707 70.9048 60.5301 71.4488 61.1277 72.2204C61.8407 73.141 63.1223 74.2352 65.1435 74.9438C66.5418 75.434 67.3871 75.4369 68.1353 75.5377C69.3749 75.7048 70.5477 75.7409 75 75.7654C79.0668 75.7876 88.7193 75.749 88.7193 75.749C88.7193 75.749 89.649 75.7295 90.5507 75.8753C91.4522 76.0211 91.733 76.027 92.1869 76.2551C92.1869 76.2551 92.8643 76.5617 93.4706 76.9349C94.0767 77.3083 94.7435 78.0841 94.9382 78.1531L95.9283 79.1828L96.45 80.2184L96.8916 81.9227C96.8916 81.9227 97.1168 84.8797 97.155 87.0607C97.1861 88.8332 97.1336 90.3886 97.0991 93.7535C97.0935 94.2859 96.9608 94.759 96.8588 95.087C96.6647 95.711 96.3333 96.1316 96.0129 96.5809C95.7327 96.9737 95.0396 97.5695 94.397 98.2147C94.397 98.2147 93.996 98.561 93.3012 99.0635C92.9405 99.3244 92.1446 99.7145 92.0553 99.784L90.81 100.246C90.81 100.246 90.9177 100.413 89.2481 100.618C87.8199 100.793 88.4939 100.596 86.1609 100.8C85.8656 100.826 87.4193 100.733 85.0739 100.871C83.4669 100.965 84.9708 100.88 77.5197 100.936C74.8071 100.957 97.3319 100.724 73.3464 100.952L73.3908 100.965L63.116 101.025" stroke="#FAFAFA" stroke-width="5" stroke-miterlimit="10" stroke-linecap="round" stroke-linejoin="round"/>
<path d="M107.03 48.8381C106.855 58.744 106.763 62.203 106.763 67.3982C106.763 77.0413 104.268 92.1871 113.97 98.0084C115.018 98.6371 115.991 99.0161 117.291 99.2329C123.552 100.276 129.173 99.5186 140.207 99.5129" stroke="#FAFAFA" stroke-width="5" stroke-miterlimit="10" stroke-linecap="round" stroke-linejoin="round"/>
<path d="M109.951 93.8594C109.9 94.1144 109.9 93.9869 109.951 94.2419" stroke="#FAFAFA" stroke-width="0.311763" stroke-miterlimit="10" stroke-linecap="round" stroke-linejoin="round"/>
<path d="M110.983 95.0833C110.971 95.1088 110.958 95.1342 110.945 95.1597" stroke="#FAFAFA" stroke-width="0.311763" stroke-miterlimit="10" stroke-linecap="round" stroke-linejoin="round"/>
<path d="M41.7027 111.386V116.533H42.1948C42.2856 116.533 42.3501 116.549 42.3882 116.583C42.4263 116.617 42.4453 116.661 42.4453 116.717C42.4453 116.77 42.4263 116.814 42.3882 116.849C42.3501 116.884 42.2856 116.902 42.1948 116.902H41.329V116.168C40.9014 116.754 40.3579 117.047 39.6987 117.047C39.3648 117.047 39.0447 116.958 38.7385 116.781C38.4324 116.603 38.1906 116.351 38.0134 116.023C37.8361 115.695 37.7475 115.356 37.7475 115.007C37.7475 114.656 37.8361 114.317 38.0134 113.99C38.1906 113.664 38.4324 113.411 38.7385 113.232C39.0447 113.053 39.3661 112.964 39.7032 112.964C40.3476 112.964 40.8897 113.257 41.329 113.843V111.76H40.8369C40.7461 111.76 40.6816 111.742 40.6435 111.707C40.6054 111.672 40.5864 111.627 40.5864 111.571C40.5864 111.518 40.6054 111.474 40.6435 111.439C40.6816 111.404 40.7461 111.386 40.8369 111.386H41.7027ZM41.329 115.007C41.329 114.539 41.1709 114.143 40.8544 113.821C40.5381 113.499 40.1616 113.338 39.7251 113.338C39.2856 113.338 38.9077 113.499 38.5912 113.821C38.2749 114.143 38.1166 114.539 38.1166 115.007C38.1166 115.473 38.2749 115.868 38.5912 116.192C38.9077 116.516 39.2856 116.677 39.7251 116.677C40.1616 116.677 40.5381 116.516 40.8544 116.192C41.1709 115.868 41.329 115.473 41.329 115.007Z" fill="white"/>
<path d="M45.4776 111.202V112.156H44.9326V111.202H45.4776ZM45.4906 113.096V116.533H46.9408C47.0317 116.533 47.0962 116.549 47.1343 116.583C47.1723 116.617 47.1913 116.661 47.1913 116.717C47.1913 116.77 47.1723 116.814 47.1343 116.849C47.0962 116.884 47.0317 116.902 46.9408 116.902H43.6714C43.5835 116.902 43.5205 116.884 43.4824 116.849C43.4443 116.814 43.4253 116.77 43.4253 116.717C43.4253 116.661 43.4443 116.617 43.4824 116.583C43.5205 116.549 43.5835 116.533 43.6714 116.533H45.1216V113.47H44.0449C43.957 113.47 43.8933 113.452 43.8537 113.417C43.8142 113.382 43.7944 113.338 43.7944 113.285C43.7944 113.229 43.8135 113.184 43.8516 113.149C43.8897 113.114 43.954 113.096 44.0449 113.096H45.4906Z" fill="white"/>
<path d="M51.9375 113.773V113.096H52.8032C52.8911 113.096 52.954 113.114 52.9921 113.149C53.0302 113.184 53.0493 113.229 53.0493 113.285C53.0493 113.338 53.0302 113.382 52.9921 113.417C52.954 113.452 52.8911 113.47 52.8032 113.47H52.3067V117.157C52.3067 117.403 52.2538 117.622 52.1484 117.816C52.078 117.945 51.9609 118.078 51.7968 118.216C51.6329 118.353 51.4835 118.451 51.3486 118.51C51.2139 118.569 51.0338 118.598 50.8082 118.598H49.7622C49.6743 118.598 49.6113 118.581 49.5732 118.547C49.5351 118.514 49.5161 118.469 49.5161 118.413C49.5161 118.358 49.5351 118.312 49.5732 118.277C49.6113 118.242 49.6743 118.224 49.7622 118.224L50.8214 118.229C51.0381 118.229 51.2337 118.173 51.408 118.062C51.5823 117.951 51.7266 117.788 51.8408 117.574C51.9053 117.451 51.9375 117.294 51.9375 117.104V115.996C51.542 116.538 51.0323 116.809 50.4083 116.809C49.9014 116.809 49.4642 116.621 49.0965 116.245C48.7287 115.868 48.545 115.415 48.545 114.885C48.545 114.354 48.7287 113.902 49.0965 113.527C49.4642 113.152 49.9014 112.964 50.4083 112.964C51.0323 112.964 51.542 113.234 51.9375 113.773ZM51.9375 114.885C51.9375 114.451 51.7888 114.085 51.4914 113.786C51.1941 113.487 50.8389 113.338 50.4258 113.338C50.0127 113.338 49.6583 113.488 49.3623 113.788C49.0664 114.089 48.9185 114.454 48.9185 114.885C48.9185 115.318 49.0664 115.685 49.3623 115.985C49.6583 116.286 50.0127 116.436 50.4258 116.436C50.8389 116.436 51.1941 116.286 51.4914 115.985C51.7888 115.685 51.9375 115.318 51.9375 114.885Z" fill="white"/>
<path d="M56.2792 111.202V112.156H55.7343V111.202H56.2792ZM56.2924 113.096V116.533H57.7426C57.8335 116.533 57.8979 116.549 57.936 116.583C57.9741 116.617 57.9931 116.661 57.9931 116.717C57.9931 116.77 57.9741 116.814 57.936 116.849C57.8979 116.884 57.8335 116.902 57.7426 116.902H54.4731C54.3852 116.902 54.3222 116.884 54.2842 116.849C54.2461 116.814 54.2271 116.77 54.2271 116.717C54.2271 116.661 54.2461 116.617 54.2842 116.583C54.3222 116.549 54.3852 116.533 54.4731 116.533H55.9233V113.47H54.8467C54.7588 113.47 54.6951 113.452 54.6555 113.417C54.6159 113.382 54.5962 113.338 54.5962 113.285C54.5962 113.229 54.6153 113.184 54.6532 113.149C54.6913 113.114 54.7558 113.096 54.8467 113.096H56.2924Z" fill="white"/>
<path d="M60.7398 113.096H62.7436C62.8315 113.096 62.8945 113.114 62.9326 113.149C62.9707 113.184 62.9898 113.229 62.9898 113.285C62.9898 113.338 62.9707 113.382 62.9326 113.417C62.8945 113.452 62.8315 113.47 62.7436 113.47H60.7398V115.926C60.7398 116.14 60.8254 116.319 60.9969 116.462C61.1682 116.606 61.4194 116.677 61.7505 116.677C61.9995 116.677 62.269 116.64 62.5591 116.565C62.8491 116.491 63.0747 116.407 63.2358 116.313C63.2944 116.275 63.3427 116.256 63.3808 116.256C63.4278 116.256 63.4687 116.274 63.5038 116.311C63.5391 116.347 63.5566 116.39 63.5566 116.44C63.5566 116.484 63.5376 116.525 63.4995 116.563C63.4057 116.66 63.178 116.765 62.8161 116.877C62.4543 116.99 62.1079 117.047 61.7769 117.047C61.3462 117.047 61.0033 116.946 60.7485 116.743C60.4936 116.541 60.3661 116.269 60.3661 115.926V113.47H59.685C59.5971 113.47 59.5342 113.452 59.4961 113.417C59.458 113.382 59.439 113.336 59.439 113.281C59.439 113.228 59.458 113.184 59.4961 113.149C59.5342 113.114 59.5971 113.096 59.685 113.096H60.3661V112.006C60.3661 111.918 60.3838 111.855 60.4189 111.817C60.454 111.779 60.498 111.76 60.5508 111.76C60.6064 111.76 60.6519 111.779 60.687 111.817C60.7221 111.855 60.7398 111.918 60.7398 112.006V113.096Z" fill="white"/>
<path d="M67.9599 116.902V116.37C67.4238 116.821 66.8511 117.047 66.2416 117.047C65.7993 117.047 65.4535 116.935 65.2045 116.711C64.9555 116.486 64.831 116.212 64.831 115.887C64.831 115.529 64.9951 115.217 65.3232 114.951C65.6514 114.684 66.1303 114.551 66.7602 114.551C66.9301 114.551 67.1148 114.562 67.314 114.584C67.5132 114.606 67.7284 114.64 67.9599 114.687V114.089C67.9599 113.887 67.8661 113.711 67.6786 113.562C67.4911 113.412 67.2099 113.338 66.8349 113.338C66.5478 113.338 66.145 113.421 65.6265 113.588C65.5327 113.618 65.4726 113.632 65.4463 113.632C65.3994 113.632 65.3592 113.615 65.3254 113.579C65.2917 113.544 65.2749 113.5 65.2749 113.448C65.2749 113.398 65.2896 113.358 65.3188 113.329C65.3598 113.285 65.5254 113.225 65.8155 113.149C66.2724 113.026 66.6181 112.964 66.8526 112.964C67.3183 112.964 67.6816 113.079 67.9423 113.309C68.2032 113.539 68.3335 113.799 68.3335 114.089V116.533H68.8257C68.9164 116.533 68.9809 116.549 69.019 116.583C69.0571 116.617 69.0762 116.661 69.0762 116.717C69.0762 116.77 69.0571 116.814 69.019 116.849C68.9809 116.884 68.9164 116.902 68.8257 116.902H67.9599ZM67.9599 115.065C67.7871 115.015 67.6039 114.978 67.4106 114.955C67.2172 114.932 67.0137 114.92 66.7998 114.92C66.2637 114.92 65.8447 115.035 65.5429 115.267C65.3145 115.44 65.2002 115.646 65.2002 115.887C65.2002 116.109 65.2873 116.297 65.4616 116.449C65.6359 116.601 65.8902 116.678 66.2241 116.678C66.5434 116.678 66.8401 116.614 67.114 116.486C67.3879 116.359 67.6699 116.156 67.9599 115.878V115.065Z" fill="white"/>
<path d="M72.4863 111.386V116.533H73.9365C74.0274 116.533 74.0917 116.549 74.1298 116.583C74.1679 116.617 74.187 116.661 74.187 116.717C74.187 116.77 74.1679 116.814 74.1298 116.849C74.0917 116.884 74.0274 116.902 73.9365 116.902H70.6669C70.579 116.902 70.516 116.884 70.4781 116.849C70.44 116.814 70.4209 116.77 70.4209 116.717C70.4209 116.661 70.44 116.617 70.4781 116.583C70.516 116.549 70.579 116.533 70.6669 116.533H72.1171V111.76H71.0536C70.9657 111.76 70.9021 111.742 70.8625 111.707C70.8229 111.672 70.8031 111.627 70.8031 111.571C70.8031 111.518 70.8222 111.474 70.8603 111.439C70.8984 111.404 70.9629 111.386 71.0536 111.386H72.4863Z" fill="white"/>
<path d="M79.5836 114.094V114.621H75.8174V114.094H79.5836Z" fill="white"/>
<path d="M84.3209 113.338C84.3209 113.253 84.3384 113.191 84.3735 113.153C84.4088 113.115 84.4527 113.096 84.5053 113.096C84.561 113.096 84.6065 113.115 84.6416 113.153C84.6768 113.191 84.6943 113.256 84.6943 113.346V113.979C84.6943 114.067 84.6768 114.13 84.6416 114.168C84.6065 114.206 84.561 114.225 84.5053 114.225C84.4555 114.225 84.4138 114.209 84.3801 114.177C84.3465 114.145 84.3267 114.092 84.3209 114.019C84.3032 113.843 84.2124 113.698 84.0483 113.584C83.8081 113.42 83.4903 113.338 83.0947 113.338C82.6816 113.338 82.3608 113.421 82.1324 113.588C81.9594 113.714 81.873 113.855 81.873 114.01C81.873 114.186 81.9756 114.332 82.1807 114.45C82.3214 114.532 82.5879 114.595 82.9805 114.639C83.4932 114.694 83.8491 114.757 84.0483 114.827C84.3325 114.93 84.5442 115.072 84.6834 115.254C84.8225 115.435 84.892 115.632 84.892 115.843C84.892 116.156 84.7411 116.435 84.4395 116.68C84.1377 116.924 83.6953 117.047 83.1123 117.047C82.5292 117.047 82.0518 116.899 81.6796 116.603C81.6796 116.702 81.6738 116.767 81.6621 116.796C81.6504 116.826 81.6291 116.85 81.5983 116.871C81.5676 116.891 81.5333 116.902 81.4952 116.902C81.4424 116.902 81.3984 116.883 81.3633 116.845C81.328 116.807 81.3105 116.744 81.3105 116.656V115.895C81.3105 115.808 81.3274 115.745 81.361 115.706C81.3948 115.668 81.4395 115.649 81.4952 115.649C81.5478 115.649 81.5925 115.668 81.6291 115.704C81.6657 115.741 81.6842 115.79 81.6842 115.851C81.6842 115.986 81.7177 116.099 81.7851 116.19C81.8877 116.33 82.0511 116.447 82.2752 116.539C82.4993 116.631 82.7739 116.678 83.0991 116.678C83.5795 116.678 83.937 116.588 84.1714 116.409C84.4057 116.231 84.5229 116.042 84.5229 115.843C84.5229 115.614 84.4043 115.431 84.167 115.293C83.9268 115.156 83.5775 115.063 83.1189 115.016C82.6604 114.97 82.3316 114.908 82.1324 114.832C81.9332 114.756 81.7779 114.641 81.6665 114.489C81.5552 114.337 81.4995 114.173 81.4995 113.997C81.4995 113.681 81.6548 113.429 81.9654 113.243C82.2759 113.057 82.6465 112.964 83.0772 112.964C83.5869 112.964 84.0015 113.089 84.3209 113.338Z" fill="white"/>
<path d="M87.7441 113.096H89.748C89.8359 113.096 89.8989 113.114 89.937 113.149C89.9751 113.184 89.9941 113.229 89.9941 113.285C89.9941 113.338 89.9751 113.382 89.937 113.417C89.8989 113.452 89.8359 113.47 89.748 113.47H87.7441V115.926C87.7441 116.14 87.8298 116.319 88.0012 116.462C88.1725 116.606 88.4238 116.677 88.7548 116.677C89.0038 116.677 89.2734 116.64 89.5635 116.565C89.8534 116.491 90.079 116.407 90.2403 116.313C90.2988 116.275 90.3471 116.256 90.3852 116.256C90.4321 116.256 90.4731 116.274 90.5083 116.311C90.5434 116.347 90.561 116.39 90.561 116.44C90.561 116.484 90.5419 116.525 90.5038 116.563C90.4101 116.66 90.1824 116.765 89.8206 116.877C89.4588 116.99 89.1123 117.047 88.7812 117.047C88.3506 117.047 88.0078 116.946 87.753 116.743C87.498 116.541 87.3706 116.269 87.3706 115.926V113.47H86.6895C86.6016 113.47 86.5386 113.452 86.5005 113.417C86.4624 113.382 86.4433 113.336 86.4433 113.281C86.4433 113.228 86.4624 113.184 86.5005 113.149C86.5386 113.114 86.6016 113.096 86.6895 113.096H87.3706V112.006C87.3706 111.918 87.3882 111.855 87.4233 111.817C87.4585 111.779 87.5025 111.76 87.5551 111.76C87.6108 111.76 87.6562 111.779 87.6913 111.817C87.7266 111.855 87.7441 111.918 87.7441 112.006V113.096Z" fill="white"/>
<path d="M95.1665 116.902V116.361C94.6626 116.818 94.1176 117.047 93.5317 117.047C93.1714 117.047 92.8974 116.949 92.7099 116.752C92.4667 116.494 92.3452 116.194 92.3452 115.851V113.47H91.8486C91.7607 113.47 91.6977 113.452 91.6596 113.417C91.6216 113.382 91.6026 113.336 91.6026 113.281C91.6026 113.228 91.6216 113.184 91.6596 113.149C91.6977 113.114 91.7607 113.096 91.8486 113.096H92.7144V115.851C92.7144 116.092 92.7906 116.289 92.9428 116.445C93.0952 116.6 93.2856 116.678 93.5142 116.678C94.1148 116.678 94.6656 116.402 95.1665 115.851V113.47H94.4853C94.3974 113.47 94.3344 113.452 94.2964 113.417C94.2583 113.382 94.2393 113.336 94.2393 113.281C94.2393 113.228 94.2583 113.184 94.2964 113.149C94.3344 113.114 94.3974 113.096 94.4853 113.096H95.5356V116.533H95.8476C95.9355 116.533 95.9985 116.549 96.0366 116.583C96.0747 116.617 96.0937 116.661 96.0937 116.717C96.0937 116.77 96.0747 116.814 96.0366 116.849C95.9985 116.884 95.9355 116.902 95.8476 116.902H95.1665Z" fill="white"/>
<path d="M101.112 111.386V116.533H101.604C101.695 116.533 101.76 116.549 101.798 116.583C101.836 116.617 101.855 116.661 101.855 116.717C101.855 116.77 101.836 116.814 101.798 116.849C101.76 116.884 101.695 116.902 101.604 116.902H100.739V116.168C100.311 116.754 99.7676 117.047 99.1085 117.047C98.7744 117.047 98.4543 116.958 98.1482 116.781C97.842 116.603 97.6004 116.351 97.4231 116.023C97.2459 115.695 97.1573 115.356 97.1573 115.007C97.1573 114.656 97.2459 114.317 97.4231 113.99C97.6004 113.664 97.842 113.411 98.1482 113.232C98.4543 113.053 98.7759 112.964 99.1128 112.964C99.7574 112.964 100.299 113.257 100.739 113.843V111.76H100.247C100.156 111.76 100.091 111.742 100.053 111.707C100.015 111.672 99.9962 111.627 99.9962 111.571C99.9962 111.518 100.015 111.474 100.053 111.439C100.091 111.404 100.156 111.386 100.247 111.386H101.112ZM100.739 115.007C100.739 114.539 100.581 114.143 100.264 113.821C99.9477 113.499 99.5714 113.338 99.1347 113.338C98.6954 113.338 98.3174 113.499 98.001 113.821C97.6845 114.143 97.5264 114.539 97.5264 115.007C97.5264 115.473 97.6845 115.868 98.001 116.192C98.3174 116.516 98.6954 116.677 99.1347 116.677C99.5714 116.677 99.9477 116.516 100.264 116.192C100.581 115.868 100.739 115.473 100.739 115.007Z" fill="white"/>
<path d="M104.887 111.202V112.156H104.342V111.202H104.887ZM104.9 113.096V116.533H106.351C106.441 116.533 106.506 116.549 106.544 116.583C106.582 116.617 106.601 116.661 106.601 116.717C106.601 116.77 106.582 116.814 106.544 116.849C106.506 116.884 106.441 116.902 106.351 116.902H103.081C102.993 116.902 102.93 116.884 102.892 116.849C102.854 116.814 102.835 116.77 102.835 116.717C102.835 116.661 102.854 116.617 102.892 116.583C102.93 116.549 102.993 116.533 103.081 116.533H104.531V113.47H103.455C103.367 113.47 103.303 113.452 103.263 113.417C103.224 113.382 103.204 113.338 103.204 113.285C103.204 113.229 103.223 113.184 103.261 113.149C103.299 113.114 103.364 113.096 103.455 113.096H104.9Z" fill="white"/>
<path d="M112.169 115.008C112.169 115.57 111.967 116.051 111.565 116.449C111.162 116.847 110.676 117.047 110.108 117.047C109.534 117.047 109.046 116.847 108.645 116.447C108.243 116.047 108.042 115.567 108.042 115.008C108.042 114.445 108.243 113.964 108.645 113.564C109.046 113.164 109.534 112.964 110.108 112.964C110.676 112.964 111.162 113.163 111.565 113.562C111.967 113.96 112.169 114.442 112.169 115.008ZM111.795 115.008C111.795 114.545 111.631 114.151 111.301 113.826C110.971 113.5 110.572 113.338 110.103 113.338C109.635 113.338 109.236 113.501 108.906 113.828C108.576 114.154 108.412 114.548 108.412 115.008C108.412 115.465 108.576 115.857 108.906 116.185C109.236 116.514 109.635 116.678 110.103 116.678C110.572 116.678 110.971 116.514 111.301 116.188C111.631 115.861 111.795 115.468 111.795 115.008Z" fill="white"/>
</svg>
