<svg width="150" height="150" fill="none" xmlns="http://www.w3.org/2000/svg"><path stroke="#FAFAFA" stroke-linecap="round" stroke-linejoin="round" stroke-miterlimit="10" stroke-width="5" d="M8.858 103.013c-.052-.119.034-.312 0-.929-.023-.428 0-1.059 0-1.059v-6.466 1.275-1.798c0-12.753-.636-31.713 8.012-41.594.458-.523.747-.764 1.296-1.22.366-.306.757-.645 1.17-.91 5.905-3.805 16.365-3.5 22.86.482 0 0 .436.28 1.038.747.11.085.5.427.696.626.193.194.365.373.55.601 3.6 4.45 5.764 15.214 6.618 24.544.26 2.838.398 5.544.418 7.9.023 2.64 0 5.074 0 6.535 0 1.044-.04 2.286-.02 3.58.01.614.02 1.05.02 1.05l.01 6.622"/><path stroke="#FAFAFA" stroke-linecap="round" stroke-linejoin="round" stroke-miterlimit="10" stroke-width="5" d="M8.84 86.104c0-4.328 5.232-8.852 8.106-10.785 1.144-.77 1.804-1.141 3.335-1.825 1.729-.772 5.236-1.692 7.925-1.935 1.979-.179 3.376-.079 4.804 0 7.896.437 15.757 7.267 18.516 14.016m44.537-36.524c-6.917 0-14.465-.477-20.886-.002-4.485.331-7.817.118-10.604 1.866-.283.177-1.325 1.118-1.325 1.118-.392.439-1.37 1.861-1.37 1.861s-2.11 2.98-2.068 6.554c.023 1.945-.1 7.289.328 9.342.233 1.115.392 1.659.99 2.43.713.921 1.994 2.015 4.016 2.724 1.398.49 2.243.493 2.991.594 1.24.167 2.413.203 6.865.227 4.067.023 13.72-.016 13.72-.016s.929-.02 1.83.126c.902.146 1.183.152 1.637.38 0 0 .677.307 1.284.68.606.373 1.272 1.15 1.467 1.218l.99 1.03.522 1.035.442 1.705s.225 2.957.263 5.138c.031 1.772-.021 3.328-.056 6.692-.005.533-.138 1.006-.24 1.334-.194.624-.526 1.045-.846 1.494-.28.393-.973.989-1.616 1.634 0 0-.401.346-1.096.849-.36.26-1.156.65-1.246.72l-1.245.462s.108.167-1.562.372c-1.428.175-.754-.022-3.087.182-.295.026 1.258-.067-1.087.071-1.607.094-.103.009-7.554.065-2.713.021 19.812-.212-4.174.016l.045.013-10.275.06m43.914-52.187c-.175 9.906-.267 13.365-.267 18.56 0 9.643-2.495 24.79 7.207 30.61a8.9 8.9 0 0 0 3.321 1.225c6.261 1.043 11.882.286 22.916.28"/><path stroke="#FAFAFA" stroke-linecap="round" stroke-linejoin="round" stroke-miterlimit="10" stroke-width=".312" d="M109.951 93.86c-.051.254-.051.127 0 .382m1.032.841-.038.077"/><path fill="#fff" d="M41.703 111.386v5.147h.492q.136 0 .193.05a.17.17 0 0 1 .057.134.17.17 0 0 1-.057.132q-.057.053-.193.053h-.866v-.734q-.642.879-1.63.879-.501 0-.96-.266a1.9 1.9 0 0 1-.726-.758 2.1 2.1 0 0 1-.265-1.016q0-.526.265-1.017a1.9 1.9 0 0 1 .726-.758q.459-.268.964-.268.968 0 1.626.879v-2.083h-.492q-.135 0-.194-.053a.18.18 0 0 1-.057-.136q0-.08.058-.132.057-.053.193-.053zm-.374 3.621q0-.703-.475-1.186a1.53 1.53 0 0 0-1.129-.483q-.66 0-1.134.483a1.63 1.63 0 0 0-.474 1.186q0 .699.474 1.185.475.485 1.134.485.655 0 1.13-.485.474-.486.474-1.185m4.149-3.805v.954h-.545v-.954zm.013 1.894v3.437h1.45q.136 0 .193.05a.17.17 0 0 1 .057.134.17.17 0 0 1-.057.132q-.057.053-.193.053h-3.27q-.13 0-.189-.053a.17.17 0 0 1-.057-.132q0-.084.057-.134t.19-.05h1.45v-3.063h-1.077q-.132 0-.191-.053a.17.17 0 0 1-.06-.132q0-.084.058-.136.057-.053.193-.053zm6.447.677v-.677h.865q.132 0 .19.053.056.052.056.136 0 .08-.057.132-.056.053-.189.053h-.496v3.687q0 .368-.159.659-.105.193-.351.4a2 2 0 0 1-.448.294 1.4 1.4 0 0 1-.54.088h-1.047q-.131 0-.189-.051a.17.17 0 0 1-.057-.134q0-.083.057-.136t.19-.053l1.058.005q.326 0 .587-.167a1.27 1.27 0 0 0 .433-.488q.096-.185.096-.47v-1.108q-.593.813-1.529.813-.76 0-1.312-.564a1.88 1.88 0 0 1-.551-1.36q0-.796.551-1.358a1.78 1.78 0 0 1 1.312-.563q.936 0 1.53.809m0 1.112q0-.65-.447-1.099a1.45 1.45 0 0 0-1.065-.448q-.62 0-1.064.45a1.5 1.5 0 0 0-.444 1.097q0 .65.444 1.1t1.064.451q.62 0 1.065-.451.447-.45.447-1.1m4.342-3.683v.954h-.546v-.954zm.012 1.894v3.437h1.45q.138 0 .194.05a.17.17 0 0 1 .057.134.17.17 0 0 1-.057.132q-.057.053-.193.053h-3.27q-.131 0-.189-.053a.17.17 0 0 1-.057-.132q0-.084.057-.134t.19-.05h1.45v-3.063h-1.077q-.132 0-.191-.053a.17.17 0 0 1-.06-.132q0-.084.057-.136t.194-.053zm4.448 0h2.004q.13 0 .189.053.057.052.057.136 0 .08-.057.132t-.19.053H60.74v2.456a.67.67 0 0 0 .257.536q.256.216.754.215.372 0 .808-.112.435-.111.677-.252a.3.3 0 0 1 .145-.057q.07 0 .123.055a.17.17 0 0 1-.004.252q-.141.146-.684.314-.542.17-1.04.17-.645 0-1.028-.304a.99.99 0 0 1-.382-.817v-2.456h-.681q-.131 0-.189-.053a.18.18 0 0 1-.057-.136q0-.08.057-.132t.189-.053h.681v-1.09q0-.132.053-.189a.17.17 0 0 1 .132-.057q.082 0 .136.057.053.057.053.189zm7.22 3.806v-.532q-.804.677-1.718.677-.664 0-1.038-.336a1.07 1.07 0 0 1-.373-.824q0-.537.492-.936.492-.4 1.437-.4.255 0 .554.033t.646.103v-.598q0-.303-.281-.527t-.844-.224q-.43 0-1.209.25a.8.8 0 0 1-.18.044.16.16 0 0 1-.12-.053.18.18 0 0 1-.051-.131q0-.075.044-.119.06-.066.496-.18.686-.185 1.038-.185.698 0 1.09.345.39.345.39.78v2.444h.493q.135 0 .193.05a.17.17 0 0 1 .057.134q0 .08-.057.132t-.193.053zm0-1.837a3.4 3.4 0 0 0-.55-.11 5 5 0 0 0-.61-.035q-.804 0-1.257.347-.343.259-.343.62 0 .333.262.562.261.228.762.229.48 0 .89-.192a3.2 3.2 0 0 0 .846-.608zm4.526-3.679v5.147h1.45q.137 0 .194.05a.17.17 0 0 1 .057.134q0 .08-.057.132t-.194.053h-3.27q-.13 0-.188-.053a.17.17 0 0 1-.057-.132q0-.084.057-.134t.189-.05h1.45v-4.773h-1.063q-.132 0-.192-.053a.17.17 0 0 1-.059-.136q0-.08.057-.132t.194-.053zm7.098 2.708v.527h-3.767v-.527zm4.736-.756q0-.128.054-.185a.17.17 0 0 1 .131-.057q.084 0 .137.057.052.057.052.193v.633q0 .132-.052.189a.18.18 0 0 1-.137.057.18.18 0 0 1-.125-.048q-.05-.048-.06-.158a.59.59 0 0 0-.272-.435q-.36-.246-.953-.246-.62 0-.963.25-.26.19-.259.422 0 .264.308.44.21.123.8.189.768.083 1.067.188.426.154.635.427.21.272.209.589 0 .47-.453.837-.452.367-1.327.367-.874 0-1.432-.444a.7.7 0 0 1-.018.193.16.16 0 0 1-.064.075.2.2 0 0 1-.103.031.17.17 0 0 1-.132-.057q-.052-.057-.052-.189v-.761q0-.13.05-.189a.17.17 0 0 1 .134-.057q.079 0 .134.055a.2.2 0 0 1 .055.147q0 .203.101.339.154.21.49.349t.824.139q.72 0 1.072-.269.352-.267.352-.566 0-.343-.356-.55-.36-.206-1.048-.277-.688-.07-.987-.184a1 1 0 0 1-.466-.343.8.8 0 0 1-.166-.492q0-.474.465-.754.465-.279 1.112-.279.765 0 1.244.374m3.423-.242h2.004q.131 0 .189.053.057.052.057.136a.17.17 0 0 1-.057.132q-.057.053-.189.053h-2.004v2.456a.67.67 0 0 0 .257.536q.257.216.754.215.373 0 .809-.112.435-.111.676-.252a.3.3 0 0 1 .145-.057q.07 0 .123.055a.17.17 0 0 1-.005.252q-.14.146-.682.314-.543.17-1.04.17-.645 0-1.028-.304a.99.99 0 0 1-.382-.817v-2.456h-.681q-.132 0-.19-.053a.18.18 0 0 1-.057-.136q0-.08.058-.132.056-.053.188-.053h.682v-1.09q0-.132.052-.189a.17.17 0 0 1 .132-.057q.084 0 .136.057t.053.189zm7.423 3.806v-.541q-.757.686-1.635.686-.54 0-.822-.295a1.27 1.27 0 0 1-.365-.901v-2.381h-.496q-.132 0-.19-.053a.18.18 0 0 1-.056-.136q0-.08.057-.132.056-.053.189-.053h.865v2.755q0 .36.229.594a.77.77 0 0 0 .571.233q.9 0 1.653-.827v-2.381h-.682q-.131 0-.189-.053a.18.18 0 0 1-.057-.136q0-.08.057-.132t.19-.053h1.05v3.437h.312q.131 0 .189.05a.17.17 0 0 1 .057.134.17.17 0 0 1-.057.132q-.058.053-.19.053zm5.945-5.516v5.147h.492q.137 0 .194.05a.17.17 0 0 1 .057.134.17.17 0 0 1-.057.132q-.057.053-.194.053h-.865v-.734q-.642.879-1.63.879-.502 0-.96-.266a1.9 1.9 0 0 1-.726-.758 2.1 2.1 0 0 1-.266-1.016q0-.526.266-1.017a1.9 1.9 0 0 1 .725-.758q.46-.268.965-.268.966 0 1.626.879v-2.083h-.492q-.137 0-.194-.053a.18.18 0 0 1-.057-.136q0-.08.057-.132t.194-.053zm-.373 3.621q0-.703-.475-1.186a1.53 1.53 0 0 0-1.13-.483q-.659 0-1.133.483a1.63 1.63 0 0 0-.475 1.186q0 .699.475 1.185.474.485 1.134.485.654 0 1.129-.485a1.63 1.63 0 0 0 .475-1.185m4.148-3.805v.954h-.545v-.954zm.013 1.894v3.437h1.451q.136 0 .193.05a.17.17 0 0 1 .057.134.17.17 0 0 1-.057.132q-.057.053-.193.053h-3.27q-.132 0-.189-.053a.17.17 0 0 1-.057-.132q0-.084.057-.134t.189-.05h1.45v-3.063h-1.076q-.132 0-.192-.053a.17.17 0 0 1-.059-.132q0-.084.057-.136t.194-.053zm7.269 1.912q0 .844-.604 1.441a2 2 0 0 1-1.457.598q-.861 0-1.463-.6t-.603-1.439q0-.844.603-1.444.602-.6 1.463-.6.852 0 1.457.598.604.597.604 1.446m-.374 0q0-.694-.494-1.182a1.64 1.64 0 0 0-1.198-.488q-.702 0-1.197.49t-.494 1.18q0 .685.494 1.177.495.493 1.197.493t1.198-.49a1.6 1.6 0 0 0 .494-1.18"/></svg>